<svg xmlns="http://www.w3.org/2000/svg" viewBox="0 0 420 240" role="img" aria-labelledby="title desc">
  <title id="title">Responsive</title>
  <desc id="desc">PC、タブレット、スマートフォンの画面幅に対応するイラスト</desc>
  <rect width="420" height="240" rx="10" fill="#f7f8fa"/>
  <g transform="translate(52 48)">
    <path d="M28 112h164l20 17H8z" fill="#c9d2df"/>
    <rect x="26" y="10" width="166" height="104" rx="8" fill="#fff" stroke="#b8c4d3" stroke-width="8"/>
    <rect x="50" y="34" width="118" height="54" rx="5" fill="#fff4eb"/>
    <path d="M63 49h92M63 68h55" stroke="#ff6b00" stroke-width="8" stroke-linecap="round"/>
  </g>
  <g transform="translate(194 38)">
    <rect x="0" y="0" width="104" height="154" rx="11" fill="#fff" stroke="#111" stroke-width="7"/>
    <rect x="18" y="24" width="68" height="92" rx="5" fill="#fff4eb"/>
    <path d="M29 42h46M29 60h34M29 78h46" stroke="#ff6b00" stroke-width="7" stroke-linecap="round"/>
    <circle cx="52" cy="134" r="4" fill="#111"/>
  </g>
  <g transform="translate(300 76)">
    <rect x="0" y="0" width="54" height="116" rx="10" fill="#fff" stroke="#111" stroke-width="6"/>
    <rect x="12" y="22" width="30" height="62" rx="4" fill="#fff4eb"/>
    <path d="M18 36h18M18 51h14M18 66h18" stroke="#ff6b00" stroke-width="5" stroke-linecap="round"/>
    <rect x="21" y="98" width="12" height="4" rx="2" fill="#111"/>
  </g>
  <circle cx="112" cy="170" r="18" fill="#fff" stroke="#ff6b00" stroke-width="6"/>
  <path d="M103 169l7 7 14-16" fill="none" stroke="#111" stroke-width="6" stroke-linecap="round" stroke-linejoin="round"/>
</svg>
