<svg xmlns="http://www.w3.org/2000/svg" viewBox="0 0 48 48"><rect width="48" height="48" rx="10" fill="#fff0e3"/><path d="M12 32a9 9 0 0 1 3-17 12 12 0 0 1 22 5 8 8 0 0 1-1 16H13" fill="#fff" stroke="#111" stroke-width="3.5" stroke-linecap="round" stroke-linejoin="round"/><path d="M18 31c0 2 4 4 9 4s9-2 9-4v-5c0-2-4-5-9-5s-9 2-9 5z" fill="#fff" stroke="#111" stroke-width="3" stroke-linejoin="round"/><path d="M18 26c0 2 4 4 9 4s9-2 9-4M27 15v8M23 19l4-4 4 4" stroke="#ff6b00" stroke-width="3.2" stroke-linecap="round" stroke-linejoin="round"/></svg>
