<svg xmlns="http://www.w3.org/2000/svg" viewBox="0 0 1440 760" preserveAspectRatio="xMidYMin slice">
  <rect width="1440" height="760" fill="none"/>

  <path d="M0 92c164-58 312-58 470-8 176 56 330 70 498 2 170-68 324-62 472 4v670H0z" fill="#fff8f1" opacity=".9"/>
  <path d="M0 188c150-58 316-68 500-14 178 52 312 60 484-10 166-68 318-52 456 8v588H0z" fill="#fff1e4" opacity=".62"/>
  <path d="M0 286c180-76 346-48 516 4 170 52 306 34 456-24 176-68 330-34 468 26v468H0z" fill="#fff" opacity=".5"/>

  <path d="M-40 128c190-78 338-54 486-8 174 54 318 58 482-2 180-66 336-50 552 22" fill="none" stroke="#ff6b00" stroke-width="3" opacity=".1"/>
  <path d="M-80 246c206-82 376-62 560-10 168 48 318 44 490-22 176-68 334-40 550 26" fill="none" stroke="#ff6b00" stroke-width="4" opacity=".08"/>
  <path d="M-60 382c178-68 342-46 506 2 184 54 330 36 486-24 174-66 350-34 568 34" fill="none" stroke="#111" stroke-width="3" opacity=".045"/>
  <path d="M-80 540c212-78 384-50 540-4 176 52 330 48 490-16 178-72 356-38 560 28" fill="none" stroke="#ff6b00" stroke-width="4" opacity=".075"/>

  <path d="M84 670c94-34 180-28 264-4 92 26 170 24 260-8 92-34 182-22 286 12" fill="none" stroke="#ff6b00" stroke-width="5" opacity=".06"/>
  <path d="M940 82c72-24 132-20 192-2 66 20 126 18 192-5" fill="none" stroke="#111" stroke-width="4" opacity=".04"/>
</svg>
