<svg xmlns="http://www.w3.org/2000/svg" viewBox="0 0 420 240" role="img" aria-labelledby="title desc">
  <title id="title">基本パック</title>
  <desc id="desc">基本的な3画面の業務アプリ構成を表すイラスト</desc>
  <rect width="420" height="240" rx="10" fill="#f7f8fa"/>
  <g transform="translate(62 48)">
    <rect x="0" y="0" width="88" height="124" rx="10" fill="#fff" stroke="#111" stroke-width="6"/>
    <rect x="17" y="24" width="54" height="16" rx="4" fill="#ff6b00"/>
    <rect x="17" y="55" width="54" height="10" rx="5" fill="#d8dee8"/>
    <rect x="17" y="76" width="38" height="10" rx="5" fill="#d8dee8"/>
  </g>
  <g transform="translate(166 38)">
    <rect x="0" y="0" width="88" height="144" rx="10" fill="#fff" stroke="#111" stroke-width="6"/>
    <rect x="17" y="24" width="54" height="16" rx="4" fill="#ff6b00"/>
    <rect x="17" y="56" width="54" height="10" rx="5" fill="#d8dee8"/>
    <rect x="17" y="78" width="54" height="10" rx="5" fill="#d8dee8"/>
    <rect x="17" y="100" width="34" height="10" rx="5" fill="#d8dee8"/>
  </g>
  <g transform="translate(270 48)">
    <rect x="0" y="0" width="88" height="124" rx="10" fill="#fff" stroke="#111" stroke-width="6"/>
    <rect x="17" y="24" width="54" height="16" rx="4" fill="#ff6b00"/>
    <rect x="17" y="55" width="54" height="10" rx="5" fill="#d8dee8"/>
    <rect x="17" y="76" width="38" height="10" rx="5" fill="#d8dee8"/>
  </g>
  <circle cx="210" cy="194" r="18" fill="#fff" stroke="#ff6b00" stroke-width="6"/>
  <path d="M201 193l7 7 14-16" fill="none" stroke="#111" stroke-width="6" stroke-linecap="round" stroke-linejoin="round"/>
</svg>
