<svg xmlns="http://www.w3.org/2000/svg" viewBox="0 0 420 240" role="img" aria-labelledby="title desc">
  <title id="title">拡張パック</title>
  <desc id="desc">基本より多くの画面と機能を含む業務アプリ構成を表すイラスト</desc>
  <rect width="420" height="240" rx="10" fill="#f7f8fa"/>
  <g transform="translate(48 38)">
    <rect x="0" y="18" width="86" height="124" rx="10" fill="#fff" stroke="#111" stroke-width="6"/>
    <rect x="16" y="43" width="54" height="15" rx="4" fill="#ff6b00"/>
    <rect x="16" y="73" width="52" height="9" rx="5" fill="#d8dee8"/>
    <rect x="16" y="94" width="38" height="9" rx="5" fill="#d8dee8"/>
  </g>
  <g transform="translate(130 26)">
    <rect x="0" y="18" width="86" height="148" rx="10" fill="#fff" stroke="#111" stroke-width="6"/>
    <rect x="16" y="43" width="54" height="15" rx="4" fill="#ff6b00"/>
    <rect x="16" y="74" width="52" height="9" rx="5" fill="#d8dee8"/>
    <rect x="16" y="95" width="52" height="9" rx="5" fill="#d8dee8"/>
    <rect x="16" y="116" width="36" height="9" rx="5" fill="#d8dee8"/>
  </g>
  <g transform="translate(212 38)">
    <rect x="0" y="18" width="86" height="124" rx="10" fill="#fff" stroke="#111" stroke-width="6"/>
    <rect x="16" y="43" width="54" height="15" rx="4" fill="#ff6b00"/>
    <rect x="16" y="73" width="52" height="9" rx="5" fill="#d8dee8"/>
    <rect x="16" y="94" width="38" height="9" rx="5" fill="#d8dee8"/>
  </g>
  <g transform="translate(294 48)">
    <rect x="0" y="18" width="72" height="104" rx="9" fill="#fff" stroke="#111" stroke-width="6"/>
    <rect x="14" y="40" width="44" height="13" rx="4" fill="#ff6b00"/>
    <rect x="14" y="67" width="40" height="8" rx="4" fill="#d8dee8"/>
    <rect x="14" y="85" width="30" height="8" rx="4" fill="#d8dee8"/>
  </g>
  <circle cx="314" cy="56" r="18" fill="#ff6b00"/>
  <path d="M306 55l6 6 12-14" fill="none" stroke="#fff" stroke-width="6" stroke-linecap="round" stroke-linejoin="round"/>
  <circle cx="118" cy="178" r="15" fill="#fff" stroke="#ff6b00" stroke-width="5"/>
  <path d="M112 178h12M118 172v12" stroke="#111" stroke-width="5" stroke-linecap="round"/>
  <circle cx="254" cy="178" r="15" fill="#fff" stroke="#ff6b00" stroke-width="5"/>
  <path d="M248 178h12M254 172v12" stroke="#111" stroke-width="5" stroke-linecap="round"/>
</svg>
