<svg xmlns="http://www.w3.org/2000/svg" viewBox="0 0 420 240" role="img" aria-labelledby="title desc">
  <title id="title">カスタムパック</title>
  <desc id="desc">画面数や機能を自由に組み合わせられる業務アプリ構成を表すイラスト</desc>
  <rect width="420" height="240" rx="10" fill="#f7f8fa"/>
  <g transform="translate(92 32)">
    <rect x="0" y="24" width="120" height="142" rx="12" fill="#fff" stroke="#111" stroke-width="7"/>
    <rect x="22" y="52" width="76" height="18" rx="5" fill="#ff6b00"/>
    <rect x="22" y="88" width="76" height="10" rx="5" fill="#d8dee8"/>
    <rect x="22" y="112" width="54" height="10" rx="5" fill="#d8dee8"/>
    <rect x="22" y="136" width="70" height="10" rx="5" fill="#d8dee8"/>
  </g>
  <g transform="translate(204 56)">
    <rect x="0" y="24" width="96" height="118" rx="10" fill="#fff" stroke="#111" stroke-width="6"/>
    <rect x="18" y="49" width="60" height="15" rx="4" fill="#ff6b00"/>
    <rect x="18" y="80" width="58" height="9" rx="5" fill="#d8dee8"/>
    <rect x="18" y="101" width="42" height="9" rx="5" fill="#d8dee8"/>
  </g>
  <g transform="translate(286 78)">
    <rect x="0" y="24" width="64" height="92" rx="9" fill="#fff" stroke="#111" stroke-width="6"/>
    <rect x="13" y="45" width="38" height="12" rx="4" fill="#ff6b00"/>
    <rect x="13" y="70" width="36" height="7" rx="4" fill="#d8dee8"/>
    <rect x="13" y="88" width="25" height="7" rx="4" fill="#d8dee8"/>
  </g>
  <g transform="translate(54 62)">
    <circle cx="22" cy="22" r="20" fill="#fff" stroke="#ff6b00" stroke-width="6"/>
    <path d="M22 11v22M11 22h22" stroke="#111" stroke-width="6" stroke-linecap="round"/>
  </g>
  <g transform="translate(320 36)">
    <circle cx="25" cy="25" r="23" fill="#ff6b00"/>
    <path d="M15 25h20M25 15v20" stroke="#fff" stroke-width="7" stroke-linecap="round"/>
  </g>
  <g transform="translate(48 156)">
    <rect x="0" y="0" width="72" height="36" rx="18" fill="#fff" stroke="#111" stroke-width="6"/>
    <circle cx="23" cy="18" r="7" fill="#ff6b00"/>
    <circle cx="49" cy="18" r="7" fill="#d8dee8"/>
  </g>
  <path d="M204 33l14-14 14 14M218 20v32" fill="none" stroke="#ff6b00" stroke-width="8" stroke-linecap="round" stroke-linejoin="round"/>
  <path d="M332 176l14 14 14-14M346 190v-32" fill="none" stroke="#ff6b00" stroke-width="8" stroke-linecap="round" stroke-linejoin="round"/>
</svg>
